<?xml version="1.0" standalone="no"?>
<!DOCTYPE svg PUBLIC "-//W3C//DTD SVG 20010904//EN"
 "http://www.w3.org/TR/2001/REC-SVG-20010904/DTD/svg10.dtd">
<svg version="1.0" xmlns="http://www.w3.org/2000/svg"
 width="1024.000000pt" height="1024.000000pt" viewBox="0 0 1024.000000 1024.000000"
 preserveAspectRatio="xMidYMid meet">

<g transform="translate(0.000000,1024.000000) scale(0.100000,-0.100000)"
fill="#000000" stroke="none">
<path d="M3278 8244 c-146 -35 -299 -160 -370 -304 -55 -109 -68 -188 -68
-411 0 -159 -2 -191 -15 -195 -8 -4 -13 -10 -10 -14 6 -10 -34 -25 -109 -40
-64 -13 -129 -39 -161 -64 -18 -13 -14 -13 40 0 33 9 102 19 154 23 100 7 106
5 99 -41 -3 -21 -9 -24 -88 -30 -47 -4 -98 -11 -115 -17 -26 -8 -20 -10 40
-11 39 -1 90 -5 115 -8 l45 -7 0 -93 c0 -88 -1 -93 -20 -88 -11 3 -49 12 -85
21 -77 20 -171 15 -244 -12 -74 -28 -156 -99 -190 -166 -37 -72 -47 -181 -22
-252 16 -48 65 -139 71 -133 2 2 -4 30 -12 63 -20 79 -6 186 36 260 35 62 116
130 173 146 63 17 183 7 246 -21 l52 -22 0 -244 c0 -196 -3 -244 -13 -244 -31
0 -106 33 -135 60 -41 37 -42 56 -2 35 26 -13 35 -14 58 -3 65 31 63 107 -4
174 -71 72 -140 70 -208 -7 -61 -66 -56 -141 11 -172 20 -9 31 -8 55 6 39 22
44 17 23 -23 -18 -35 -41 -46 -117 -56 l-53 -7 35 -16 c32 -14 78 -17 333 -21
15 0 17 -14 17 -143 l0 -143 -37 -36 c-21 -20 -82 -70 -135 -111 -149 -116
-405 -336 -490 -420 -155 -156 -228 -319 -228 -512 0 -115 14 -178 59 -270 96
-195 285 -308 486 -291 95 8 155 27 249 81 44 25 83 45 88 45 4 0 8 -53 8
-117 l0 -118 -78 -33 c-42 -18 -135 -49 -207 -68 -71 -19 -156 -49 -189 -67
-119 -64 -227 -202 -269 -344 -19 -64 -30 -217 -19 -263 7 -31 9 -25 15 46 7
90 41 192 87 265 38 58 141 157 201 192 102 60 267 94 391 82 l68 -7 0 -85 0
-84 -92 6 c-256 19 -450 -115 -488 -336 -48 -275 192 -485 484 -425 43 9 82
16 87 16 5 0 9 -40 9 -89 l0 -89 -37 -7 c-53 -8 -233 -10 -263 -2 -14 4 -2 -4
26 -18 52 -26 112 -40 217 -50 54 -6 57 -8 57 -34 0 -15 -2 -30 -5 -32 -6 -7
-161 10 -204 21 -19 5 -37 8 -39 5 -12 -11 86 -58 161 -77 l87 -21 -1 -171
c-1 -103 4 -189 11 -215 14 -53 64 -157 87 -183 16 -18 1 -19 -593 -16 l-609
3 -47 23 c-76 38 -134 96 -170 170 l-33 67 0 2615 0 2615 31 65 c40 84 79 129
146 166 l53 29 570 3 570 3 30 57 c17 31 60 88 96 125 l67 68 -686 -3 -687 -3
-65 -23 c-166 -59 -310 -208 -369 -381 l-26 -76 -3 -2630 c-2 -1878 1 -2645 9
-2683 14 -70 80 -200 132 -261 84 -98 216 -180 337 -209 64 -16 420 -34 1020
-52 168 -5 375 -14 460 -19 85 -5 281 -12 435 -16 392 -8 681 -33 905 -78 30
-6 58 -10 63 -9 4 1 7 -2 7 -6 0 -4 35 -14 78 -21 42 -7 107 -19 144 -27 37
-8 107 -19 155 -24 143 -16 213 -27 298 -43 117 -23 328 -48 505 -58 168 -10
553 -4 690 11 47 6 117 10 155 10 179 0 475 51 673 116 41 13 79 27 85 31 7 4
17 8 22 9 6 1 30 10 55 19 50 18 213 47 365 65 55 6 143 17 195 25 52 8 127
16 165 18 196 12 408 29 474 37 225 30 429 195 502 407 11 32 25 103 30 158 8
70 10 851 6 2650 -5 2846 2 2590 -77 2751 -69 141 -220 263 -371 299 -54 12
-180 15 -809 15 l-745 0 52 -45 c29 -25 75 -80 104 -123 l51 -77 642 -5 641
-5 54 -30 c92 -51 152 -133 171 -236 13 -68 13 -5059 0 -5182 -6 -64 -16 -100
-34 -130 -35 -60 -103 -122 -161 -149 l-50 -23 -582 -3 c-518 -2 -583 -1 -583
13 0 8 4 15 9 15 5 0 7 44 4 100 -4 83 -3 100 9 100 9 0 0 16 -24 40 -54 57
-50 78 7 38 62 -44 133 -45 194 -5 41 27 59 67 24 52 -54 -23 -212 -11 -229
17 -9 14 5 76 21 92 12 12 9 18 -28 42 -44 29 -37 43 14 25 53 -18 173 -24
245 -12 90 16 233 84 310 149 71 58 139 157 178 254 34 87 33 95 -5 28 -84
-147 -261 -312 -388 -361 -25 -10 -60 -25 -77 -33 -51 -26 -215 -16 -287 18
-70 34 -83 50 -30 39 21 -4 90 -8 153 -8 101 0 122 4 170 25 126 57 121 66
-26 43 -91 -14 -123 -15 -200 -5 -108 14 -132 21 -112 33 7 5 24 9 38 10 22 0
20 3 -15 20 l-40 19 40 -6 c171 -26 277 -22 378 16 82 31 90 42 27 33 -139
-20 -345 2 -319 33 9 11 8 14 -1 14 -7 0 -10 6 -7 14 7 18 -18 40 -70 61 -39
15 -43 20 -42 49 1 23 3 25 6 8 5 -26 18 -29 27 -5 4 9 -1 25 -12 37 -18 20
-36 56 -27 56 2 0 25 -13 52 -30 145 -90 343 -105 488 -36 64 30 138 105 173
176 24 49 27 66 27 155 0 88 -3 107 -27 157 -57 123 -155 204 -277 232 -78 18
-224 21 -289 6 -28 -7 -49 -7 -60 0 -15 8 -15 9 4 10 17 0 20 5 17 24 -3 13 0
33 6 44 10 20 7 22 -41 37 -28 8 -58 15 -65 15 -28 0 -12 28 20 34 77 14 295
18 366 7 233 -37 439 -204 491 -400 6 -24 15 -71 20 -105 8 -52 8 -45 6 49 -4
118 -25 196 -79 287 -73 125 -202 216 -377 268 -153 44 -217 79 -303 164 -68
67 -147 176 -129 176 5 0 8 10 6 22 -1 13 -3 27 -3 31 -1 5 -5 5 -11 2 -6 -3
-10 4 -10 17 0 13 -3 34 -6 48 -6 22 -1 20 42 -21 141 -132 259 -200 396 -227
395 -78 715 333 587 754 -60 197 -179 328 -634 694 -71 57 -167 139 -213 182
-45 43 -87 78 -92 78 -5 0 -27 -19 -49 -42 l-40 -43 -1 174 c0 161 1 173 18
166 129 -54 374 -63 502 -20 l55 19 -60 8 c-73 9 -141 34 -149 54 -4 12 -2 12
14 4 27 -15 67 -3 90 27 45 57 12 171 -60 208 -77 40 -180 -1 -214 -84 -20
-51 -20 -74 -1 -111 21 -41 49 -54 88 -41 l32 11 -25 -19 c-39 -31 -97 -42
-195 -39 l-90 3 -3 63 c-4 86 12 164 52 248 63 133 145 187 292 192 77 3 99 0
142 -18 61 -26 135 -102 164 -167 25 -56 35 -191 19 -247 -17 -63 -4 -55 31
20 28 58 33 83 36 157 4 83 2 93 -27 152 -36 74 -97 132 -179 172 -123 60
-313 36 -458 -58 l-74 -49 0 113 0 112 63 22 c100 36 186 53 272 53 63 0 77 2
66 13 -8 8 -53 12 -154 12 -128 -1 -172 -6 -230 -30 -16 -7 -18 -3 -15 36 l3
44 55 13 c86 21 281 18 363 -6 79 -23 75 -9 -9 32 -59 29 -140 45 -234 47 -40
0 -50 3 -35 9 16 7 13 9 -15 9 -19 0 -56 -4 -82 -8 l-48 -8 0 204 c0 244 -13
322 -72 436 -48 92 -160 204 -255 254 -125 67 5 63 -1953 62 -1477 -1 -1785
-3 -1832 -15z m3564 -255 c77 -17 119 -41 176 -104 90 -99 82 179 80 -2810
l-3 -2650 -27 -50 c-34 -65 -100 -128 -163 -157 l-50 -23 -1725 -3 c-1607 -2
-1729 -1 -1780 15 -80 25 -148 85 -190 168 l-35 68 0 2651 0 2651 33 67 c50
102 131 163 236 178 88 13 3387 12 3448 -1z m631 -696 c-7 -2 -19 -2 -25 0 -7
3 -2 5 12 5 14 0 19 -2 13 -5z m201 -1576 c202 -171 392 -347 454 -421 132
-158 166 -362 88 -532 -36 -79 -144 -183 -216 -209 -73 -26 -176 -25 -252 4
-82 31 -95 52 -20 33 99 -25 229 10 312 84 136 123 132 331 -10 519 -69 92
-59 81 -240 244 -186 168 -284 266 -286 284 0 6 -2 22 -2 33 -2 19 -10 14 -57
-34 l-55 -56 0 54 c0 51 3 57 47 102 26 27 51 47 54 46 4 -2 86 -70 183 -151z
m-4838 -14 c-5 -84 -7 -89 -38 -113 -176 -136 -405 -356 -466 -449 -50 -76
-82 -172 -82 -250 0 -200 235 -361 432 -294 74 25 59 5 -25 -33 -51 -23 -76
-28 -142 -29 -68 0 -89 4 -137 28 -115 57 -190 149 -223 272 -47 183 12 357
184 537 117 123 466 418 495 418 5 0 6 -39 2 -87z m4714 -298 c16 -52 30 -108
30 -123 l0 -27 23 27 c34 41 82 60 150 60 50 0 66 -5 101 -29 78 -55 112 -141
86 -219 -19 -57 -140 -176 -354 -349 l-49 -39 -67 72 -67 72 -7 237 c-3 129
-4 238 -1 242 3 3 18 -10 32 -28 l26 -33 24 93 c13 52 27 104 30 117 3 12 7
22 9 22 2 0 17 -43 34 -95z m-4710 -355 c0 -181 -4 -330 -8 -330 -19 0 -339
300 -359 337 -40 72 -25 173 35 236 69 72 211 67 271 -9 20 -25 21 -25 21 -6
0 21 29 102 36 102 2 0 4 -148 4 -330z m5179 -223 c30 -18 34 -37 7 -37 -24 0
-70 -67 -79 -115 -2 -16 -7 -12 -24 21 -23 42 -85 104 -106 104 -7 0 -3 6 8
12 36 19 67 52 87 92 l20 39 28 -49 c15 -27 42 -57 59 -67z m-5496 20 c52 -52
55 -57 29 -57 -9 0 -31 -15 -47 -34 -26 -30 -31 -32 -41 -18 -10 13 -11 7 -8
-33 l5 -50 -30 62 c-19 41 -39 67 -55 75 -32 14 -33 26 -2 38 14 5 37 30 52
56 25 43 29 46 38 28 6 -10 32 -40 59 -67z m295 -983 c21 -4 22 -9 22 -89 l0
-85 -43 0 c-33 0 -54 -8 -85 -29 -39 -29 -40 -29 -58 -10 -43 47 -124 -4 -124
-78 0 -28 8 -44 39 -74 50 -50 95 -53 163 -10 57 36 70 60 66 114 -3 41 -1 43
32 39 7 -1 10 -62 8 -174 l-3 -173 -60 -24 c-159 -63 -337 4 -412 156 -56 115
-25 241 83 343 96 91 227 124 372 94z m4922 5 c181 -29 320 -166 320 -315 0
-60 -36 -149 -79 -197 -95 -105 -225 -138 -361 -90 -61 22 -94 46 -141 105
-43 55 -54 85 -14 41 l25 -28 -17 31 c-15 29 -15 35 0 100 24 98 23 104 -15
105 -18 1 -39 1 -45 0 -7 -1 -13 3 -13 9 0 6 34 10 89 10 92 0 132 -7 111 -20
-22 -13 0 -90 37 -126 30 -31 39 -34 89 -34 63 0 104 22 129 70 22 42 18 74
-11 109 -32 38 -65 40 -92 6 l-20 -26 -29 27 c-39 37 -77 51 -161 59 -79 8
-94 20 -83 64 13 47 8 56 -27 53 -46 -3 -40 13 11 27 107 30 198 36 297 20z
m-314 -142 c9 -3 8 -4 -3 -3 -13 1 -19 11 -20 34 -3 31 -3 31 3 3 3 -17 12
-32 20 -34z"/>
<path d="M3502 7752 c-29 -37 -81 -98 -117 -137 -36 -38 -65 -73 -65 -77 0 -3
22 -30 48 -60 27 -29 78 -88 115 -130 l66 -77 90 103 c50 57 104 115 121 129
16 14 30 29 30 32 0 4 -39 48 -86 100 -47 51 -100 113 -118 138 l-32 45 -52
-66z"/>
<path d="M5107 7772 c-8 -39 -88 -145 -132 -175 -34 -23 -35 -26 -16 -32 30
-9 107 -99 133 -155 24 -51 38 -63 38 -32 0 40 109 172 161 196 12 5 12 7 -1
13 -35 15 -122 110 -146 159 -15 30 -28 54 -29 54 -1 0 -5 -13 -8 -28z"/>
<path d="M3845 7704 c-19 -19 -16 -43 7 -57 20 -13 48 6 48 34 0 28 -35 43
-55 23z"/>
<path d="M4070 7705 c-17 -20 -8 -59 14 -63 26 -5 48 25 36 48 -13 25 -36 31
-50 15z"/>
<path d="M4565 7704 c-22 -23 -15 -48 16 -52 27 -3 55 20 44 38 -14 23 -43 30
-60 14z"/>
<path d="M4730 7701 c-15 -28 -13 -39 10 -51 40 -22 80 26 48 58 -18 18 -46
14 -58 -7z"/>
<path d="M5460 7701 c-5 -11 -10 -22 -10 -25 0 -8 31 -36 40 -36 5 0 16 7 24
16 9 8 16 19 16 24 0 14 -30 40 -45 40 -8 0 -19 -9 -25 -19z"/>
<path d="M5643 7713 c-7 -2 -13 -18 -13 -34 0 -25 4 -29 29 -29 38 0 53 36 25
57 -19 14 -22 14 -41 6z"/>
<path d="M6125 7690 c-14 -44 48 -70 64 -27 11 28 -3 47 -35 47 -14 0 -25 -8
-29 -20z"/>
<path d="M6320 7656 c0 -16 5 -17 33 -11 17 5 126 9 242 9 247 1 189 13 -88
18 -177 3 -187 2 -187 -16z"/>
<path d="M4325 7663 c-26 -7 -65 -33 -65 -43 0 -5 17 -4 37 2 22 6 69 7 113 4
l74 -7 -28 22 c-28 22 -93 33 -131 22z"/>
<path d="M5814 7656 c-57 -26 -49 -35 23 -30 38 3 88 1 113 -5 24 -5 46 -8 48
-7 2 2 -11 14 -29 26 -39 28 -112 36 -155 16z"/>
<path d="M3932 7558 c-17 -17 -15 -55 4 -62 42 -16 74 43 35 64 -24 13 -24 13
-39 -2z"/>
<path d="M6286 7551 c-21 -23 -20 -38 3 -51 25 -13 27 -13 45 6 12 11 13 20 6
34 -14 26 -36 31 -54 11z"/>
<path d="M6581 7492 c-31 -35 -26 -50 7 -19 15 15 36 27 47 27 23 0 11 13 -14
15 -10 1 -28 -9 -40 -23z"/>
<path d="M4220 7474 c-69 -18 -204 -85 -254 -125 -39 -33 -107 -120 -120 -153
-3 -11 31 16 77 60 91 87 162 133 265 172 61 24 80 26 212 27 113 0 158 -4
205 -18 77 -24 205 -84 278 -131 31 -20 57 -34 57 -30 0 4 -19 24 -42 45 -68
61 -208 127 -318 149 -113 23 -280 25 -360 4z"/>
<path d="M5332 7458 c-22 -18 -45 -42 -52 -52 -7 -11 13 2 44 28 52 45 62 56
52 56 -2 0 -22 -15 -44 -32z"/>
<path d="M5690 7483 c-130 -23 -297 -107 -370 -188 -23 -26 -21 -25 32 8 168
106 286 147 448 154 223 10 366 -44 523 -199 96 -96 99 -95 20 4 -132 164
-280 229 -512 227 -64 -1 -127 -4 -141 -6z"/>
<path d="M5783 7362 c-29 -2 -53 -7 -53 -13 0 -5 -10 -9 -23 -9 -30 0 -149
-40 -207 -70 -94 -48 -245 -169 -229 -184 2 -3 36 16 74 40 99 64 151 90 257
125 109 36 272 49 373 30 59 -11 167 -58 235 -102 31 -21 33 -21 20 -4 -59 79
-129 135 -204 162 -47 17 -167 29 -243 25z"/>
<path d="M4271 7353 c-19 -4 -21 -7 -10 -14 10 -6 3 -9 -23 -9 -50 0 -74 -10
-56 -22 9 -7 8 -8 -7 -5 -48 9 -186 -94 -248 -186 -22 -32 -37 -60 -34 -63 3
-3 12 7 20 23 18 34 57 71 57 54 0 -7 19 3 43 22 118 94 204 127 347 134 183
9 346 -39 529 -155 45 -29 81 -48 81 -43 0 5 -32 39 -71 75 -81 75 -232 156
-344 185 -39 11 -236 13 -284 4z m62 -10 c-7 -2 -19 -2 -25 0 -7 3 -2 5 12 5
14 0 19 -2 13 -5z m-207 -68 c-11 -8 -25 -15 -30 -15 -6 1 0 7 14 15 32 19 40
18 16 0z"/>
<path d="M4341 7199 c-94 -12 -86 -19 20 -19 202 0 412 -85 568 -230 18 -17
36 -29 38 -26 3 3 -30 41 -74 84 -63 63 -97 88 -164 120 -134 64 -255 87 -388
71z"/>
<path d="M5740 7201 c-191 -27 -387 -141 -465 -271 -5 -8 25 14 66 49 151 128
351 200 564 202 72 0 92 3 72 9 -45 13 -176 19 -237 11z"/>
<path d="M3542 7143 c-6 -10 -44 -52 -86 -93 -42 -41 -82 -88 -91 -106 -21
-44 -19 -97 4 -125 27 -34 99 -34 135 0 21 19 26 21 26 8 0 -33 -21 -68 -50
-85 -16 -9 -30 -20 -30 -24 0 -11 162 -10 179 1 11 7 9 10 -8 16 -12 3 -32 28
-46 55 -29 57 -32 74 -7 44 44 -53 109 -59 153 -15 22 23 29 39 29 69 0 47
-27 89 -127 197 -63 68 -72 75 -81 58z"/>
<path d="M4240 6977 c-226 -76 -353 -280 -320 -515 13 -97 51 -173 146 -292
100 -128 127 -184 134 -282 l5 -78 163 156 c90 86 172 174 182 195 44 85 10
159 -72 159 -92 0 -168 -87 -168 -192 0 -16 -4 -28 -10 -28 -5 0 -10 11 -10
25 0 47 -48 175 -93 247 -67 109 -80 138 -86 198 l-7 55 -22 -65 c-31 -92 -36
-162 -19 -244 14 -67 14 -68 -4 -45 -116 150 -96 383 44 523 62 63 112 90 199
111 81 19 135 19 212 -1 236 -61 360 -285 283 -513 -21 -63 -22 -71 -6 -50 10
13 31 53 46 89 23 56 27 80 27 165 1 92 -1 105 -29 159 -56 111 -178 208 -296
235 -78 18 -226 12 -299 -12z"/>
<path d="M5735 6995 c-5 -2 -35 -11 -65 -20 -89 -27 -186 -98 -232 -169 -79
-123 -88 -245 -28 -390 34 -82 59 -114 34 -44 -69 195 19 414 201 500 171 79
355 54 486 -68 115 -109 153 -243 111 -395 -18 -65 -69 -165 -79 -156 -2 3 0
22 6 44 24 84 8 233 -32 308 l-16 30 1 -57 c0 -64 -23 -124 -91 -227 -42 -66
-64 -125 -76 -205 -8 -49 -25 -63 -25 -20 0 122 -115 227 -206 189 -54 -22
-68 -72 -39 -142 15 -36 189 -220 296 -314 l56 -49 1 71 c0 89 33 160 128 274
125 151 178 305 156 449 -28 180 -165 336 -337 380 -51 14 -219 21 -250 11z"/>
<path d="M6692 6948 c-5 -7 -13 -23 -16 -35 -6 -19 -4 -23 16 -23 64 1 84 22
50 53 -22 20 -36 21 -50 5z"/>
<path d="M5110 6890 c0 -26 -14 -54 -54 -104 -23 -30 -27 -41 -16 -44 15 -5
48 -38 68 -68 10 -16 14 -16 19 -4 3 8 23 31 43 51 l37 36 -33 44 c-18 24 -36
56 -39 71 -8 34 -25 47 -25 18z"/>
<path d="M6707 6747 c-41 -33 -22 -85 27 -73 25 6 42 38 31 56 -13 21 -42 30
-58 17z"/>
<path d="M4386 6680 c-64 -20 -97 -84 -73 -142 14 -34 54 -77 42 -46 -9 22 39
56 89 63 76 12 162 -42 209 -130 17 -31 22 -58 22 -123 0 -80 0 -82 14 -50 8
20 14 68 14 123 0 78 -4 98 -27 142 -61 121 -191 194 -290 163z"/>
<path d="M5752 6680 c-38 -9 -95 -45 -136 -86 -65 -65 -98 -193 -76 -297 15
-73 28 -81 22 -14 -8 102 38 193 123 242 79 47 188 31 197 -27 3 -21 6 -19 31
17 32 47 34 69 7 113 -32 52 -90 71 -168 52z"/>
<path d="M3726 6599 c-29 -101 -46 -371 -27 -438 3 -13 16 -30 28 -38 19 -13
24 -11 56 19 l34 33 -23 54 c-50 113 -69 231 -55 341 5 41 8 76 6 78 -2 2 -11
-20 -19 -49z"/>
<path d="M6491 6614 c24 -106 5 -277 -42 -381 -23 -52 -16 -79 28 -108 22 -15
25 -14 49 11 l27 26 -6 161 c-4 124 -10 180 -27 237 -23 79 -45 119 -29 54z"/>
<path d="M3430 6519 c42 -82 50 -83 115 -3 l38 46 -31 -16 c-40 -20 -91 -20
-121 0 l-23 16 22 -43z"/>
<path d="M6668 6543 c13 -24 81 -93 92 -93 4 0 19 19 32 43 l25 43 -54 -4
c-38 -3 -60 0 -79 12 -24 17 -25 17 -16 -1z"/>
<path d="M5110 6506 c0 -21 -124 -222 -176 -284 -97 -116 -266 -280 -519 -507
-370 -331 -453 -418 -545 -574 -91 -156 -121 -361 -78 -541 14 -59 70 -170
118 -235 142 -192 374 -279 612 -230 108 22 239 91 325 170 88 81 185 223 238
352 l38 91 24 -70 c29 -87 53 -134 113 -223 163 -241 404 -361 657 -326 249
35 440 198 519 446 50 154 31 382 -43 528 -86 171 -183 276 -558 602 -379 329
-602 578 -686 763 -23 50 -39 66 -39 38z m65 -374 c69 -93 361 -384 535 -532
320 -274 424 -385 488 -522 41 -86 55 -157 55 -263 0 -264 -155 -446 -414
-486 -140 -22 -314 38 -414 141 l-50 52 47 -35 c63 -47 145 -77 246 -90 204
-27 374 59 459 231 37 74 38 79 38 186 0 104 -2 115 -32 178 -62 132 -163 239
-483 513 -262 225 -368 324 -457 427 l-77 90 -18 -24 c-100 -130 -262 -286
-518 -500 -349 -292 -483 -456 -509 -626 -32 -207 109 -414 319 -468 122 -31
299 1 425 76 l50 30 -49 -44 c-81 -74 -198 -127 -311 -141 -65 -8 -179 16
-262 54 -247 116 -335 428 -198 700 66 132 185 260 470 509 263 230 468 436
564 570 17 23 34 42 39 42 4 0 29 -31 57 -68z m-12 -355 c24 -52 55 -103 67
-115 l24 -22 -22 -22 c-32 -35 -68 -124 -88 -216 -9 -45 -19 -81 -21 -79 -2 2
-13 37 -24 78 -11 41 -39 110 -63 155 l-42 81 33 49 c18 27 46 79 61 116 15
37 28 68 29 68 1 0 22 -42 46 -93z m-205 -124 c3 -28 -1 -33 -23 -39 -18 -4
-32 -1 -45 11 -26 23 -25 27 8 48 38 24 56 18 60 -20z m376 27 c28 -10 34 -38
14 -58 -17 -17 -38 -15 -60 5 -22 20 -22 27 -2 47 18 19 16 19 48 6z m-399
-194 c61 -26 111 -82 144 -161 17 -40 31 -91 32 -112 0 -33 4 -26 25 45 32
109 44 132 99 180 60 53 129 76 206 69 150 -13 257 -138 247 -286 -6 -76 -14
-95 -114 -247 -136 -206 -160 -290 -113 -394 l20 -45 -30 29 c-48 46 -74 118
-69 194 4 57 14 83 96 245 79 155 92 189 92 230 0 99 -64 167 -156 167 -119 0
-211 -101 -236 -257 -15 -98 15 -317 57 -418 8 -17 7 -18 -7 -7 -21 17 -108
188 -109 215 -1 12 -5 4 -10 -18 -11 -47 -75 -179 -94 -195 -10 -8 -8 5 5 47
30 97 42 204 38 324 -4 125 -17 163 -80 235 -88 100 -231 97 -285 -6 -41 -77
-28 -138 67 -310 59 -106 100 -217 100 -272 0 -53 -21 -112 -56 -161 -20 -27
-38 -47 -40 -44 -2 2 5 24 16 48 26 58 26 149 0 207 -11 23 -57 101 -104 172
-47 71 -93 144 -102 161 -21 42 -29 134 -15 184 24 90 108 173 196 194 48 12
134 6 180 -13z m-20 -251 c94 -45 60 -185 -45 -185 -34 0 -48 6 -76 34 -51 51
-45 118 14 150 35 20 66 20 107 1z m512 -5 c46 -28 58 -55 44 -100 -15 -50
-41 -71 -95 -77 -40 -5 -48 -2 -76 25 -86 87 22 217 127 152z m-1015 -17 c10
-9 18 -24 18 -34 0 -25 -38 -35 -58 -15 -14 13 -14 19 -2 41 16 30 18 30 42 8z
m1456 -6 c22 -23 18 -43 -8 -48 -40 -7 -65 32 -38 59 16 16 21 15 46 -11z
m-1392 -152 c54 -32 89 -99 79 -152 -10 -53 -63 -103 -109 -103 -67 0 -102 66
-49 92 14 7 28 18 30 23 6 19 -21 45 -54 51 -27 5 -37 1 -62 -23 -83 -83 -27
-231 102 -273 81 -26 175 21 212 106 13 30 29 54 35 54 6 0 22 -11 35 -25 71
-70 -28 -204 -171 -234 -171 -36 -347 84 -370 252 -24 175 174 318 322 232z
m1480 4 c74 -35 127 -124 127 -209 0 -108 -73 -214 -178 -261 -103 -47 -250
-25 -329 49 -57 53 -73 135 -34 172 36 33 54 26 73 -31 29 -87 119 -134 209
-109 127 35 185 176 108 260 -15 17 -41 33 -59 36 -26 5 -34 2 -48 -20 -20
-30 -14 -56 13 -56 30 0 46 -24 32 -49 -27 -52 -97 -56 -146 -7 -30 30 -34 40
-34 88 0 35 7 64 20 86 41 67 162 92 246 51z m-990 -94 c24 -24 24 -26 9 -55
-20 -38 -59 -49 -86 -24 -39 35 -42 51 -12 79 35 32 57 32 89 0z m399 -6 c23
-28 24 -34 12 -53 -8 -11 -27 -25 -42 -31 -24 -8 -30 -6 -51 18 -30 35 -31 61
-2 81 33 23 53 20 83 -15z"/>
<path d="M3480 6335 c-39 -9 -45 -15 -51 -43 -7 -36 -3 -38 46 -18 31 14 60
48 53 65 -2 4 -23 2 -48 -4z"/>
<path d="M6714 6317 c7 -33 21 -47 49 -47 15 0 18 7 15 32 -3 28 -8 33 -37 39
-33 7 -33 7 -27 -24z"/>
<path d="M3486 6059 c-35 -39 -44 -55 -36 -64 8 -9 10 -173 8 -529 -2 -284 0
-516 3 -516 4 0 12 14 19 30 15 35 25 38 42 10 21 -33 26 -23 16 31 -5 30 -8
276 -6 570 2 286 2 519 1 519 0 0 -22 -23 -47 -51z"/>
<path d="M6708 5631 c2 -274 -1 -514 -6 -566 -6 -49 -9 -92 -7 -94 3 -2 10 8
16 23 16 34 22 33 45 -9 10 -19 21 -35 24 -35 3 0 4 240 3 532 l-2 533 -38 46
-38 45 3 -475z"/>
<path d="M3710 5991 c0 -12 29 -23 41 -15 5 3 7 10 4 15 -8 12 -45 12 -45 0z"/>
<path d="M3940 5948 c-50 -88 -65 -151 -64 -268 0 -58 5 -113 11 -124 9 -16
17 -9 70 57 68 85 89 146 80 229 -6 46 -49 158 -61 158 -3 0 -19 -24 -36 -52z"/>
<path d="M6239 5953 c-16 -35 -24 -72 -27 -135 -5 -103 11 -146 86 -230 l47
-52 12 50 c18 78 15 184 -7 255 -17 55 -72 159 -84 159 -2 0 -14 -21 -27 -47z"/>
<path d="M6533 5993 c-7 -2 -12 -19 -12 -36 1 -22 3 -25 6 -12 3 11 12 28 21
38 15 17 9 20 -15 10z"/>
<path d="M3710 5960 c0 -5 5 -10 11 -10 5 0 7 5 4 10 -3 6 -8 10 -11 10 -2 0
-4 -4 -4 -10z"/>
<path d="M3701 5491 c-1 -107 1 -192 3 -190 2 2 25 34 51 72 l46 68 -21 29
c-29 40 -51 95 -66 160 -11 51 -12 39 -13 -139z"/>
<path d="M6523 5613 c-9 -50 -22 -81 -51 -124 -38 -55 -39 -58 -22 -75 10 -11
34 -43 54 -73 l36 -53 0 196 c0 108 -1 196 -3 196 -2 0 -8 -30 -14 -67z"/>
<path d="M3446 4863 c5 -10 11 -198 14 -418 7 -430 7 -430 65 -545 35 -68 130
-175 187 -210 52 -31 55 -23 6 14 -90 69 -161 200 -179 331 -12 92 -8 768 5
800 5 13 0 11 -14 -8 l-22 -28 -26 41 c-26 40 -52 56 -36 23z"/>
<path d="M6754 4831 l-19 -40 -22 27 -22 27 10 -39 c7 -26 9 -166 6 -405 -5
-408 -9 -440 -74 -563 -22 -42 -56 -87 -87 -115 l-51 -46 46 31 c104 69 187
191 219 319 17 69 20 121 22 461 2 210 0 382 -3 382 -3 0 -14 -18 -25 -39z"/>
<path d="M5095 4337 c-50 -281 -159 -496 -298 -587 -34 -22 -58 -40 -53 -40
15 0 171 78 203 101 17 13 55 44 84 69 l53 45 -44 -64 c-113 -160 -301 -291
-419 -291 -80 0 -130 36 -131 96 0 69 79 113 114 63 l15 -22 40 33 c72 57 141
152 184 256 27 65 46 142 27 112 -21 -34 -137 -107 -280 -175 -153 -74 -196
-107 -231 -179 -23 -48 -27 -124 -9 -178 14 -44 74 -98 133 -121 34 -13 67
-16 130 -14 76 4 92 8 178 51 111 55 201 132 274 236 28 39 52 71 55 71 3 0
28 -32 55 -70 199 -280 507 -375 674 -209 42 42 66 125 52 177 -14 52 -62 125
-102 156 -19 14 -104 59 -189 100 -103 50 -173 91 -207 122 -29 26 -53 44 -53
41 0 -17 59 -150 93 -208 44 -76 112 -157 151 -177 24 -13 28 -13 47 7 25 27
43 28 79 2 53 -38 44 -114 -18 -152 -70 -43 -185 -17 -297 67 -61 46 -167 161
-200 218 -16 27 -10 24 41 -23 55 -51 148 -109 200 -124 13 -4 -12 27 -60 76
-68 69 -91 101 -134 188 -51 103 -103 274 -118 389 -4 28 -10 53 -14 56 -3 2
-15 -42 -25 -98z"/>
<path d="M6522 4304 c-16 -55 -62 -116 -109 -145 l-38 -24 30 -6 c52 -11 112
-9 123 4 16 19 24 106 14 162 l-9 50 -11 -41z"/>
<path d="M3700 4221 l0 -104 73 7 c77 8 103 20 65 29 -32 8 -71 51 -107 117
l-31 55 0 -104z"/>
<path d="M3894 4035 c-9 -21 3 -62 19 -68 8 -3 36 -1 63 5 44 10 47 12 25 19
-13 5 -37 20 -53 34 -34 29 -46 31 -54 10z"/>
<path d="M6310 4040 c0 -6 -20 -23 -45 -39 l-45 -28 47 -7 c36 -5 51 -2 65 11
22 20 24 59 2 67 -21 8 -24 8 -24 -4z"/>
<path d="M6507 3984 c-11 -33 -102 -113 -152 -135 -98 -43 -204 -29 -308 41
-62 42 -67 38 -17 -16 40 -43 42 -48 38 -99 l-3 -53 115 1 c104 2 121 5 172
30 31 15 72 45 91 66 36 40 81 142 74 170 -2 12 -5 11 -10 -5z"/>
<path d="M3726 3964 c12 -55 45 -119 77 -152 69 -72 185 -105 297 -85 38 7 45
12 50 38 10 46 28 76 78 128 26 26 43 47 39 47 -4 0 -40 -20 -79 -45 -90 -56
-163 -79 -221 -70 -76 13 -139 49 -195 110 -47 52 -52 55 -46 29z"/>
<path d="M6770 3716 c-14 -7 -45 -28 -70 -47 l-45 -34 76 0 76 0 -5 45 c-2 25
-5 46 -6 47 -1 1 -13 -3 -26 -11z"/>
<path d="M3438 3681 l-3 -39 61 -4 c53 -3 61 -1 51 11 -15 18 -88 71 -97 71
-5 0 -10 -18 -12 -39z"/>
<path d="M3823 3612 c-33 -46 -38 -56 -22 -47 8 5 4 -3 -7 -16 -34 -38 -52
-81 -65 -153 -11 -67 -6 -179 10 -205 5 -8 7 5 4 30 -7 65 12 155 52 234 42
86 80 127 139 151 52 22 59 34 17 31 -16 -1 -27 -5 -25 -8 2 -4 -11 -9 -29
-13 -23 -5 -35 -2 -43 8 -9 13 -14 11 -31 -12z m27 -6 c0 -2 -8 -10 -17 -17
-16 -13 -17 -12 -4 4 13 16 21 21 21 13z"/>
<path d="M6270 3632 l-35 -4 40 -12 c28 -9 45 -9 58 -2 38 24 19 29 -63 18z"/>
<path d="M6376 3559 c21 -23 26 -24 22 -2 -2 9 -11 17 -21 19 -18 2 -18 2 -1
-17z"/>
<path d="M5094 3516 c-131 -267 -381 -465 -629 -498 -248 -33 -458 95 -430
263 7 42 35 83 67 100 20 11 20 10 4 -12 -22 -32 -21 -76 3 -89 90 -48 190 86
122 164 -84 96 -253 29 -296 -117 -47 -162 75 -327 281 -382 85 -23 249 -21
347 4 210 54 425 200 524 355 15 25 30 45 33 45 3 0 31 -36 63 -79 149 -204
419 -340 673 -340 51 0 117 5 146 11 128 27 243 111 294 216 22 45 26 63 22
122 -4 82 -37 138 -103 177 -110 64 -234 22 -235 -80 0 -30 7 -45 34 -72 52
-52 118 -44 131 18 6 24 3 35 -11 45 -10 8 -13 13 -5 13 27 0 68 -55 75 -103
9 -60 -15 -116 -75 -175 -64 -62 -131 -85 -254 -86 -119 0 -190 17 -320 79
-150 72 -267 186 -385 374 l-56 89 -20 -42z"/>
<path d="M6642 3493 c14 -16 31 -39 38 -52 l13 -25 15 30 c8 16 24 39 35 52
l20 22 -73 0 -74 0 26 -27z"/>
<path d="M3466 3461 c-14 -15 -26 -30 -26 -33 0 -3 20 -3 45 0 31 3 52 0 70
-12 32 -21 32 -12 0 29 -33 45 -58 49 -89 16z"/>
<path d="M6540 3432 c-78 -39 -79 -113 -1 -196 64 -69 128 -152 136 -176 4
-11 9 -20 13 -20 4 1 24 27 45 59 20 31 66 89 101 128 72 81 85 116 61 166
-31 66 -105 76 -160 22 -19 -20 -35 -40 -35 -45 0 -6 -4 -10 -10 -10 -5 0 -10
6 -10 14 0 23 -56 76 -82 76 -12 0 -39 -8 -58 -18z"/>
<path d="M5510 3325 c92 -96 210 -145 343 -144 64 0 77 2 57 10 -14 5 -43 29
-64 52 -32 34 -38 38 -33 18 5 -21 3 -22 -21 -17 -15 4 -36 7 -47 7 -46 0
-142 33 -204 70 l-66 41 35 -37z"/>
<path d="M4725 3341 c-20 -19 -179 -83 -235 -95 -32 -6 -67 -19 -78 -29 -10
-10 -26 -15 -34 -12 -8 3 -23 -3 -33 -15 -18 -20 -18 -20 46 -14 89 7 146 21
204 50 50 24 169 123 150 124 -6 0 -15 -4 -20 -9z"/>
<path d="M3467 3293 c-8 -10 -17 -27 -19 -38 -2 -17 2 -20 27 -18 100 6 101 7
53 47 -38 31 -40 31 -61 9z"/>
<path d="M4468 3303 c7 -3 16 -2 19 1 4 3 -2 6 -13 5 -11 0 -14 -3 -6 -6z"/>
<path d="M4508 3293 c7 -3 16 -2 19 1 4 3 -2 6 -13 5 -11 0 -14 -3 -6 -6z"/>
<path d="M5733 3293 c9 -2 23 -2 30 0 6 3 -1 5 -18 5 -16 0 -22 -2 -12 -5z"/>
<path d="M5785 3290 c3 -5 8 -10 11 -10 2 0 4 5 4 10 0 6 -5 10 -11 10 -5 0
-7 -4 -4 -10z"/>
<path d="M3372 3065 c0 -16 3 -39 8 -50 8 -18 9 -18 8 5 0 14 -4 36 -8 50 -8
24 -8 24 -8 -5z"/>
<path d="M5240 3080 c0 -6 37 -46 82 -91 67 -65 100 -89 182 -130 199 -97 413
-107 574 -25 53 27 93 64 57 53 -183 -57 -413 -47 -592 24 -109 43 -163 73
-237 128 -36 28 -66 46 -66 41z"/>
<path d="M4930 3033 c-87 -59 -206 -118 -310 -151 -78 -25 -98 -27 -250 -27
-123 0 -180 4 -223 17 l-59 17 19 -21 c68 -75 280 -109 455 -73 80 17 191 66
265 117 56 37 150 125 164 150 12 22 16 24 -61 -29z"/>
<path d="M3547 2992 c-19 -21 -21 -41 -6 -62 8 -12 9 -10 4 7 -3 12 -1 25 6
29 8 4 9 3 5 -5 -8 -12 22 -8 73 11 19 7 21 11 11 23 -17 21 -73 19 -93 -3z"/>
<path d="M6390 2993 c0 -6 -17 -32 -39 -59 -21 -27 -39 -53 -39 -57 0 -5 -4
-12 -8 -15 -4 -4 -4 -1 0 6 10 17 -9 15 -24 -3 -7 -8 -39 -31 -72 -51 -32 -20
-57 -38 -54 -41 3 -3 17 4 33 14 45 31 103 65 103 60 0 -2 -27 -23 -60 -46
-69 -46 -149 -82 -230 -102 -70 -16 -287 -17 -363 0 -66 14 -259 110 -299 148
-15 15 -30 24 -33 21 -11 -11 106 -106 168 -136 150 -73 355 -100 507 -68 164
34 338 154 396 272 15 30 24 58 20 61 -3 3 -6 2 -6 -4z"/>
<path d="M3862 2950 c26 -76 125 -178 217 -224 191 -96 453 -102 640 -15 74
34 173 102 216 150 35 38 22 31 -60 -29 -68 -51 -184 -106 -265 -128 -30 -8
-107 -17 -170 -21 -99 -5 -128 -3 -205 17 -49 12 -100 27 -112 34 -29 15 -121
95 -204 178 -58 57 -66 63 -57 38z"/>
<path d="M6631 2922 c13 -16 30 -38 37 -48 9 -14 14 -16 18 -6 3 7 17 26 31
42 l25 30 -24 1 c-12 0 -43 3 -67 5 l-44 5 24 -29z"/>
<path d="M6500 2848 c-37 -26 -53 -66 -44 -115 4 -20 44 -77 109 -156 56 -69
105 -133 109 -144 7 -15 10 -13 26 17 10 19 53 75 95 124 42 49 81 99 87 109
48 90 9 174 -86 184 -43 5 -48 3 -85 -34 l-40 -39 -10 23 c-12 26 -66 53 -104
53 -13 0 -39 -10 -57 -22z"/>
<path d="M4996 2773 c-14 -21 -57 -63 -96 -93 -38 -30 -65 -56 -60 -58 12 -4
47 15 91 49 38 30 106 125 96 135 -3 3 -17 -12 -31 -33z"/>
<path d="M5107 2757 c-20 -46 -89 -121 -138 -149 l-39 -22 28 -12 c43 -17 96
-68 133 -125 l32 -50 14 30 c22 44 108 130 144 143 l31 11 -30 14 c-42 20 -97
80 -131 142 l-29 54 -15 -36z"/>
<path d="M5260 2722 c0 -16 78 -81 105 -88 35 -9 37 -3 7 26 -13 14 -22 19
-18 13 5 -9 2 -11 -8 -7 -9 3 -13 11 -9 17 3 5 1 7 -4 4 -6 -4 -16 0 -24 9
-17 20 -49 37 -49 26z"/>
<path d="M5300 2726 c0 -2 8 -10 18 -17 15 -13 16 -12 3 4 -13 16 -21 21 -21
13z"/>
<path d="M3540 2689 c0 -11 34 -16 55 -9 16 6 12 8 -17 12 -21 2 -38 1 -38 -3z"/>
<path d="M6278 2689 c-22 -12 -23 -42 -3 -59 12 -10 21 -10 40 -2 29 13 32 34
9 56 -18 19 -23 19 -46 5z"/>
<path d="M3920 2669 c-7 -11 -10 -22 -8 -23 20 -17 45 -23 60 -15 24 13 23 36
-1 49 -28 15 -39 13 -51 -11z"/>
<path d="M3878 2541 c-2 -6 -72 -11 -156 -13 l-152 -2 20 -21 c19 -18 34 -20
173 -22 155 -1 177 3 177 37 0 25 -54 43 -62 21z"/>
<path d="M4240 2544 c0 -14 81 -61 116 -68 17 -4 44 -2 60 4 29 11 74 48 74
60 0 4 -28 3 -62 -2 -59 -9 -139 -5 -173 8 -8 4 -15 2 -15 -2z"/>
<path d="M5960 2538 c-25 -5 -80 -7 -122 -5 -43 2 -78 0 -78 -4 0 -16 52 -48
90 -54 39 -7 99 13 145 48 27 21 18 25 -35 15z"/>
<path d="M4049 2508 c-10 -18 -8 -24 7 -35 22 -16 36 -17 52 -1 17 17 15 45
-4 52 -28 11 -43 6 -55 -16z"/>
<path d="M4729 2514 c-26 -31 25 -70 56 -44 19 16 19 25 -1 44 -20 20 -38 20
-55 0z"/>
<path d="M5473 2522 c-11 -7 -16 -26 -14 -49 2 -18 46 -16 62 3 23 27 -17 66
-48 46z"/>
<path d="M6122 2518 c-28 -28 1 -64 44 -54 20 5 25 12 22 34 -2 20 -9 28 -28
30 -14 2 -31 -3 -38 -10z"/>
<path d="M6347 2524 c-16 -17 -6 -44 20 -50 32 -8 58 6 58 32 0 15 -8 20 -35
22 -20 2 -39 0 -43 -4z"/>
<path d="M4557 2513 c-4 -3 -7 -17 -7 -30 0 -19 5 -23 28 -23 37 0 54 17 41
42 -9 17 -49 25 -62 11z"/>
<path d="M5642 2493 c3 -24 8 -28 33 -28 25 0 30 4 30 25 0 21 -5 26 -33 28
-31 3 -33 2 -30 -25z"/>
<path d="M7428 5733 c-10 -2 -18 -9 -18 -14 0 -14 16 -11 30 6 7 8 11 14 9 14
-2 -1 -12 -3 -21 -6z"/>
<path d="M1903 7736 c-5 -9 -55 -65 -112 -126 -117 -126 -115 -104 -16 -210
33 -36 77 -85 98 -109 20 -25 38 -43 40 -40 22 30 133 156 172 195 l52 51 -50
49 c-27 27 -76 83 -109 124 -33 41 -62 76 -63 78 -2 2 -7 -4 -12 -12z"/>
<path d="M2258 7673 c-24 -6 -23 -50 1 -63 15 -7 25 -5 42 9 23 19 24 19 5 40
-11 12 -22 20 -25 20 -3 -1 -14 -3 -23 -6z"/>
<path d="M2745 7660 c-8 -25 10 -50 36 -50 24 0 32 16 25 46 -8 31 -52 34 -61
4z"/>
<path d="M2463 7644 c-24 -14 -43 -26 -43 -27 0 -1 49 -2 109 -2 121 0 132 12
38 40 -63 19 -54 20 -104 -11z"/>
<path d="M7565 7663 c-12 -2 -34 -14 -49 -27 l-29 -22 112 0 c61 1 111 4 111
7 0 24 -97 51 -145 42z"/>
<path d="M7863 7650 c-18 -11 -33 -23 -33 -27 0 -5 41 -8 90 -8 50 0 90 3 90
8 0 13 -64 47 -90 47 -14 0 -40 -9 -57 -20z"/>
<path d="M8117 7664 c-15 -15 -6 -41 17 -52 28 -13 50 5 44 35 -3 18 -47 30
-61 17z"/>
<path d="M8220 7660 c-32 -10 294 -10 335 0 17 4 -42 8 -140 8 -93 0 -181 -4
-195 -8z"/>
<path d="M8433 7493 c9 -2 23 -2 30 0 6 3 -1 5 -18 5 -16 0 -22 -2 -12 -5z"/>
<path d="M7910 7485 c0 -3 19 -14 43 -26 59 -30 155 -96 196 -133 49 -45 22
-1 -32 52 -28 28 -72 54 -125 77 -45 19 -82 32 -82 30z"/>
<path d="M2390 7442 c-58 -28 -150 -100 -150 -115 0 -5 10 -2 23 7 12 9 62 43
111 76 97 65 102 75 16 32z"/>
<path d="M2685 7425 c-86 -16 -203 -56 -260 -89 -59 -35 -174 -161 -201 -221
-37 -82 -40 -106 -8 -60 84 122 201 228 319 288 67 33 189 77 216 77 10 0 21
5 24 10 7 12 0 12 -90 -5z"/>
<path d="M7525 7431 c-21 -5 0 -9 70 -13 186 -10 330 -80 474 -229 43 -43 94
-107 115 -142 48 -79 42 -36 -10 71 -40 83 -146 197 -210 226 -21 10 -66 32
-99 48 -52 27 -73 31 -158 34 -54 1 -111 5 -125 7 -15 3 -40 2 -57 -2z m262
-17 c-3 -3 -12 -4 -19 -1 -8 3 -5 6 6 6 11 1 17 -2 13 -5z"/>
<path d="M2763 7313 c9 -2 23 -2 30 0 6 3 -1 5 -18 5 -16 0 -22 -2 -12 -5z"/>
<path d="M1794 7058 c-50 -51 -96 -106 -102 -121 -21 -48 -15 -86 18 -119 27
-27 36 -30 71 -25 23 3 51 15 64 27 l23 22 -8 -37 c-5 -20 -18 -47 -29 -59
-12 -12 -21 -25 -21 -29 0 -4 34 -7 75 -7 69 0 95 10 61 23 -19 8 -42 44 -50
81 l-7 29 31 -27 c41 -34 88 -35 129 0 27 22 31 33 31 73 0 33 -7 56 -23 78
-22 30 -164 183 -170 183 -1 0 -43 -42 -93 -92z"/>
<path d="M8453 6925 l-28 -24 42 -1 c23 0 45 -5 48 -10 4 -7 14 -6 28 1 21 12
21 12 -7 35 -34 30 -48 30 -83 -1z"/>
<path d="M8469 6734 c-14 -18 -5 -40 25 -58 24 -15 73 38 55 60 -15 19 -63 18
-80 -2z"/>
<path d="M2085 6671 c-18 -29 -27 -173 -16 -247 31 -213 192 -374 388 -391 64
-5 75 -3 158 33 l89 39 -114 6 c-93 5 -127 12 -180 34 -84 35 -155 88 -207
156 -83 107 -118 208 -111 319 3 63 3 66 -7 51z"/>
<path d="M8301 6600 c-4 -167 -98 -327 -242 -413 -92 -54 -176 -77 -287 -80
l-94 -2 73 -34 c50 -24 93 -36 134 -39 151 -10 333 106 403 256 23 50 27 73
30 177 2 66 -1 136 -6 155 -10 34 -10 34 -11 -20z"/>
<path d="M1890 6544 c-15 -9 -42 -13 -67 -11 -24 3 -43 3 -43 1 0 -2 8 -19 17
-39 24 -50 54 -45 100 18 36 49 35 55 -7 31z"/>
<path d="M8470 6541 c0 -4 11 -23 24 -42 26 -39 59 -54 74 -35 8 10 42 76 42
82 0 1 -13 -3 -30 -9 -21 -8 -41 -8 -70 -1 -22 6 -40 8 -40 5z"/>
<path d="M1850 6341 c-40 -14 -45 -19 -42 -43 3 -23 8 -28 32 -28 24 0 33 7
50 40 29 58 31 57 -40 31z"/>
<path d="M8490 6334 c26 -68 58 -85 80 -44 14 26 7 37 -37 55 -48 20 -54 19
-43 -11z"/>
<path d="M1820 6161 c-23 -6 -25 -12 -28 -66 l-2 -60 35 60 c46 79 46 80 -5
66z"/>
<path d="M8543 6143 c8 -16 23 -48 35 -73 l22 -45 0 63 c0 58 -2 63 -26 72
-40 15 -46 12 -31 -17z"/>
<path d="M8360 6008 c57 -123 71 -185 77 -343 l5 -140 45 -62 c24 -35 47 -63
50 -63 3 0 3 71 0 158 -10 235 -44 348 -142 463 -69 81 -78 78 -35 -13z"/>
<path d="M1995 6023 c-103 -130 -133 -230 -141 -468 l-7 -170 52 78 51 78 0
107 c0 130 17 215 65 324 20 46 39 89 42 96 13 31 -21 6 -62 -45z"/>
<path d="M2142 5918 c-28 -66 -66 -228 -55 -228 3 0 63 44 134 97 l130 97 -36
13 c-39 13 -125 72 -125 85 0 4 -4 8 -9 8 -5 0 -23 -33 -39 -72z"/>
<path d="M8187 5962 c-10 -10 -45 -31 -78 -48 l-61 -31 64 -49 c34 -26 91 -72
126 -102 71 -62 73 -60 47 61 -14 67 -62 188 -74 186 -3 0 -14 -8 -24 -17z"/>
<path d="M1781 4688 c-1 -20 4 -40 10 -43 16 -11 17 -3 4 40 l-13 40 -1 -37z"/>
<path d="M8591 4679 c-7 -22 -10 -43 -7 -46 2 -3 10 14 16 37 15 55 7 63 -9 9z"/>
<path d="M1783 4520 c0 -25 2 -35 4 -22 2 12 2 32 0 45 -2 12 -4 2 -4 -23z"/>
<path d="M1977 4323 c6 -92 23 -243 34 -302 l11 -54 15 31 c25 51 123 142 183
170 52 24 53 26 29 33 -55 14 -170 83 -219 130 -28 27 -52 49 -54 49 -1 0 -1
-26 1 -57z"/>
<path d="M8380 4338 c-51 -46 -168 -116 -217 -131 -34 -11 -45 -27 -17 -27 33
0 142 -89 181 -149 l40 -58 17 66 c13 50 47 329 42 338 -1 0 -21 -17 -46 -39z"/>
<path d="M8521 3938 c-11 -46 -26 -114 -31 -153 -6 -38 -13 -78 -16 -88 -5
-16 -3 -16 28 3 18 11 40 20 49 20 10 0 19 12 23 31 11 57 9 62 -24 55 -38 -7
-46 9 -30 58 7 23 19 36 33 39 21 4 21 4 1 6 -20 1 -20 4 -13 53 13 78 5 68
-20 -24z"/>
<path d="M8592 3980 c0 -14 2 -19 5 -12 2 6 2 18 0 25 -3 6 -5 1 -5 -13z"/>
<path d="M1865 3885 c5 -11 9 -33 9 -50 1 -28 -2 -30 -31 -29 -18 1 -34 -3
-34 -10 -10 -73 -9 -76 25 -76 17 0 42 -7 54 -16 22 -15 22 -15 16 28 -14 105
-25 153 -36 163 -8 7 -9 5 -3 -10z"/>
<path d="M8505 3515 c-58 -27 -59 -29 -31 -70 14 -21 26 -46 26 -56 0 -10 5
-21 10 -24 6 -3 10 1 10 10 0 34 41 97 73 110 l31 13 -38 16 c-46 19 -43 19
-81 1z"/>
<path d="M1798 3456 c-16 -19 -28 -37 -28 -40 0 -3 17 2 37 11 25 10 52 13 80
9 41 -5 43 -4 33 14 -27 50 -85 53 -122 6z"/>
<path d="M8574 3419 c-11 -6 -28 -24 -38 -40 l-18 -30 -39 36 c-52 47 -106 49
-150 6 -50 -50 -40 -86 52 -186 59 -64 101 -118 114 -148 l12 -29 31 56 c18
30 63 90 102 132 78 86 94 127 66 169 -27 41 -86 56 -132 34z"/>
<path d="M1822 3277 c-21 -22 -30 -57 -14 -57 4 0 28 7 54 14 25 8 49 12 52 9
9 -9 7 10 -2 23 -8 12 -46 34 -60 34 -5 0 -18 -10 -30 -23z"/>
<path d="M2160 3168 c0 -4 9 -31 21 -60 30 -77 101 -179 165 -237 89 -81 246
-149 381 -165 l48 -6 -35 14 c-19 8 -30 15 -25 16 6 0 -33 18 -85 39 -130 51
-169 73 -237 130 -60 49 -170 176 -211 241 -12 19 -22 32 -22 28z"/>
<path d="M1913 3004 c-14 -14 -23 -28 -20 -30 3 -3 15 4 27 16 13 13 29 20 41
17 23 -6 26 8 3 17 -22 9 -22 9 -51 -20z"/>
<path d="M1985 2990 c-3 -5 -1 -10 4 -10 6 0 11 5 11 10 0 6 -2 10 -4 10 -3 0
-8 -4 -11 -10z"/>
<path d="M8463 2909 c32 -38 47 -48 47 -30 0 5 11 23 24 38 l25 30 -64 0 -63
0 31 -38z"/>
<path d="M8105 2814 c-38 -36 -103 -83 -142 -105 -103 -58 -96 -83 9 -35 76
33 149 96 181 155 16 28 27 51 25 51 -2 -1 -34 -30 -73 -66z"/>
<path d="M8327 2859 c-23 -13 -47 -62 -47 -94 0 -40 32 -93 106 -175 36 -41
78 -92 92 -113 l26 -39 14 29 c19 36 64 95 118 154 90 98 104 172 43 223 -23
20 -42 26 -75 26 -45 0 -71 -16 -101 -66 -12 -19 -12 -19 -12 1 -2 47 -113 83
-164 54z"/>
<path d="M2220 2854 c0 -21 73 -98 125 -132 55 -36 159 -72 172 -59 2 3 -15
16 -39 28 -23 12 -91 55 -150 95 -60 41 -108 71 -108 68z"/>
<path d="M1906 2701 c-10 -16 63 -26 77 -11 10 10 6 11 -16 6 -17 -4 -35 -2
-42 4 -9 7 -15 8 -19 1z"/>
<path d="M2045 2680 c-3 -5 -1 -10 4 -10 6 0 11 5 11 10 0 6 -2 10 -4 10 -3 0
-8 -4 -11 -10z"/>
<path d="M2268 2541 c-1 -5 -77 -11 -167 -12 -151 -2 -163 -4 -142 -18 14 -9
43 -14 74 -13 40 1 46 -1 27 -8 -16 -5 25 -8 116 -9 133 -1 164 5 164 30 0 26
-64 52 -72 30z"/>
<path d="M8122 2538 c-32 -32 11 -84 46 -56 9 7 20 18 24 23 5 6 8 6 8 -1 0
-19 116 -12 137 9 16 16 13 17 -69 17 -48 0 -90 5 -93 10 -8 14 -38 13 -53 -2z"/>
<path d="M2432 2512 c28 -29 85 -44 126 -33 34 10 92 42 92 51 0 3 -54 5 -119
5 l-120 0 21 -23z"/>
<path d="M2764 2527 c-11 -30 0 -52 29 -55 24 -3 27 0 27 27 0 17 -4 31 -9 31
-5 0 -16 3 -25 6 -9 4 -18 0 -22 -9z"/>
<path d="M7800 2530 c0 -12 71 -51 102 -56 40 -7 102 16 116 43 9 17 3 18
-104 18 -63 0 -114 -2 -114 -5z"/>
</g>
</svg>
