<?xml version="1.0" encoding="UTF-8"?>
<svg version="1.1" viewBox="0 0 2048 289" width="1619" height="229" xmlns="http://www.w3.org/2000/svg">
<path transform="translate(0)" d="m0 0h2048v289h-2048z" fill="#FEFEFE"/>
<path transform="translate(105,28)" d="m0 0 15 1 97 11 8 3 4 5 2 4v11l-17 151-3 10-6 5-104 39h-10l-6-4-4-5-21-56-17-45-16-42-3-8v-10l4-7 6-4 8-2v-8l3-6 6-5 16-4 1-9 4-6 7-4 12-1 4-8 5-4z" fill="#FEFEFE"/>
<path transform="translate(318,36)" d="m0 0h145v41l-48 1-1 164h-47v-165h-49z"/>
<path transform="translate(749,110)" d="m0 0h14l17 3 12 5 11 7 9 9 7 12 4 12 2 15v10l-1 1-21 1h-71l1 9 5 8 7 5 5 2h21l9-4 8-7 4-1 30 15-2 5-9 10-7 6-15 8-16 4-11 1h-11l-14-2-13-5-12-7-14-14-8-14-4-13-1-7v-12l3-15 8-16 11-12 8-7 16-8 11-3z"/>
<path transform="translate(944,110)" d="m0 0h10l16 3 14 6 9 7 6 8 4 8 2 10v90h-45l-1-80-5-10-7-5-3-1h-13l-10 5-6 7-3 8-1 76h-44v-128h44v13l13-10 10-5z"/>
<path transform="translate(105,28)" d="m0 0 15 1 97 11 8 3 4 5 2 4v11l-17 151-3 10-6 5-104 39h-10l-6-4-4-5-21-56-17-45-16-42-3-8v-10l4-7 6-4 8-2v-8l3-6 6-5 16-4 1-9 4-6 7-4 12-1 4-8 5-4zm34 25-20 7-34 13-48 18-6 4-3 5 1 8 18 48 22 58 16 42 4 6 4 2 9-1 67-25 34-13 5-6 1-6-7-20-16-42-26-69-9-23-5-5z"/>
<path transform="translate(599,27)" d="m0 0h44v215h-44z"/>
<path transform="translate(502,114)" d="m0 0h44v128h-44z"/>
<path transform="translate(1734,145)" d="m0 0h9l12 3 11 6 7 7 5 8 4 13v10l-3 3-4 1h-69v9l4 11 6 9 9 6 8 3 6 1h8l11-3 10-6 4-5 4-1 4 4-1 4-6 7-11 7-8 3-6 1h-11l-13-3-11-6-7-6-7-11-4-11-1-7v-12l3-14 6-12 9-10 10-6z"/>
<path transform="translate(1366,155)" d="m0 0 10 1 9 4 8 7 4 5 5 12 1 7v8l-3 14-5 9-5 6-8 5-11 3h-7l-13-4-10-9-6-11-2-9v-16l3-10 6-10 8-7 9-4z" fill="#FEFEFE"/>
<path transform="translate(1526,146)" d="m0 0 11 1 10 4 6 5 5 9v2h2l2-5 9-8 12-6 10-2 11 1 10 4 6 5 6 12 2 9v64l-4 4-6-2-1-2-1-64-3-9-6-7-8-3h-13l-9 3-9 7-5 9-1 4-1 61-4 3-6-2-1-3-1-64-4-10-5-5-7-3h-13l-10 4-8 7-4 7-1 4-1 61-4 4-5-1-2-3v-90l3-3h5l3 3 1 12 9-9 14-7z"/>
<path transform="translate(1208,110)" d="m0 0h18l14 3 12 5 4 5-2 5-4 2-15-6-9-2h-18l-15 4-10 6-9 8-8 13-4 13-1 16 3 16 8 16 10 10 10 6 13 4 7 1h9l15-3 10-4 2-2 1-38h-33l-3-3v-6l3-2h41l3 3v51l-6 5-13 6-11 3-6 1h-14l-15-3-14-6-9-7-5-4-9-12-6-13-3-14v-19l4-16 7-13 9-11 10-8 15-7z"/>
<path transform="translate(1362,145)" d="m0 0h9l11 3 9 5 8 8 2 3 1-14 4-4 5 2 2 3v89l-1 3-6 2-4-3-1-15-7 8-8 6-9 4-5 1h-11l-13-4-9-6-8-9-6-12-2-7-1-8v-9l2-12 5-12 7-9 8-7 12-5zm4 10-10 2-10 6-7 8-5 11-1 5v16l3 11 6 10 9 8 13 4h7l13-4 8-6 6-9 4-11 1-7v-8l-2-10-6-12-8-8-8-4-9-2z"/>
<path transform="translate(1928,189)" d="m0 0h13l8 3 9 8 4 8 1 3v12l-3 8-6 8-8 5-8 2h-7l-10-3-9-7-5-9-1-4v-11l3-8 4-6 7-6z"/>
<path transform="translate(518,35)" d="m0 0h13l10 5 7 8 3 9v8l-3 9-7 8-8 4-3 1h-11l-9-4-6-5-5-9-1-11 3-9 6-8 8-5z"/>
<path transform="translate(173,44)" d="m0 0h22l5 3 3 7 4 108v19l-2-4-26-121-3-7-3-3z" fill="#FEFEFE"/>
<path transform="translate(1737,155)" d="m0 0 13 2 8 4 6 5 5 8 2 6v5h-65l1-7 5-10 9-8 10-4z" fill="#FEFEFE"/>
<path transform="translate(160,47)" d="m0 0h7l6 4 3 9 24 111-1 4-23-61-17-45-6-14-5-5z" fill="#FEFEFE"/>
<path transform="translate(203,44)" d="m0 0h8l10 2 5 6v13l-13 114h-1l-1-12-4-110-2-9z" fill="#FEFEFE"/>
<path transform="translate(110,134)" d="m0 0 9 1 4 5 1 7h8l6 4 1 2v9l-5 5-2 1h-6l-6-3-1 5-4 4-2 1h-7l-6-5-1-7 3-6 5-2-4-6v-9l5-5z" fill="#FEFEFE"/>
<path transform="translate(111,129)" d="m0 0 8 1 5 3 4 7v2l9 2 6 7 1 2v9l-4 6-5 4-7 1 1 5 2 3 6-1 1 3-5 3-11 4h-2l-1-4 6-2-3-8-9 4-9-1-6-4-3-6v-9l3-5 1-4-1-3v-8l4-6 5-4zm-1 5-6 4-1 2v9l4 6-5 2-3 6 1 7 6 5h7l5-3 2-4v-3l6 3h6l6-4 1-2v-9l-5-5-2-1h-8l-2-9-3-3z"/>
<path transform="translate(750,139)" d="m0 0h14l10 5 5 6 2 5v5h-48l1-9 7-8 5-3z" fill="#FEFEFE"/>
<path transform="translate(48,93)" d="m0 0h6l6 5 1 2 6 3 2 2 1 6-3 6-6 3 4 2v4l-7 3-5-1 3-6-9 2-6-4-1-2v-8l1-6 2-7 3-3z"/>
<path transform="translate(179,188)" d="m0 0h4l1 3-3 4 3-1h8l5 5v8l-1 2-1 10-4 4-2 1h-6l-5-3-1-4-6-2-3-3-1-6 3-6 6-3-4-1-1-4z"/>
<path transform="translate(141,45)" d="m0 0 1 2-66 14h-4l1-7 4-5 2-1 9-1z" fill="#FEFEFE"/>
<path transform="translate(103,59)" d="m0 0h6l-3 2-58 22h-1v-6l3-5 7-3z" fill="#FEFEFE"/>
<path transform="translate(104,33)" d="m0 0h10l51 6v1l-13 1-29 1h-26l1-4 4-4z" fill="#FEFEFE"/>
<path transform="translate(48,98)" d="m0 0h6l2 3v5l6-1 3 3-1 5-2 2-5-1-3-1-1 5-6 1-3-3 1-5 4-2-3-4 1-6z" fill="#FEFEFE"/>
<path transform="translate(187,198)" d="m0 0 5 2 1 4-3 4h-2l3 5-1 5-1 1h-6l-2-2-1-5h-6l-2-3 1-5 5-2 5 2 1-4z" fill="#FEFEFE"/>
</svg>
