<?xml version="1.0" encoding="UTF-8"?>
<svg version="1.1" viewBox="0 0 2048 768" width="1466" height="550" xmlns="http://www.w3.org/2000/svg">
<path transform="translate(0)" d="m0 0h2048v768h-2048z" fill="#FEFEFE"/>
<path transform="translate(410,198)" d="m0 0 57 6 61 7 9 3 5 6 2 4v12l-18 160-2 10-4 6-10 5-72 27-35 13h-8l-8-4-5-8-19-51-17-45-22-58-3-9v-7l4-8 7-5 8-3 2-11 4-6 7-4 14-3 2-10 4-6 6-4 5-1h10l2-7 4-5z" fill="#FEFEFE"/>
<path transform="translate(600,169)" d="m0 0h200l1 10v47l-1 1h-67v228l-1 1h-65v-229h-67l-1-1v-56z"/>
<path transform="translate(1199,272)" d="m0 0h15l20 3 15 5 14 7 10 8 11 11 8 13 6 16 3 16 1 20-1 4-2 1h-127l2 12 4 8 4 5 10 6 7 3h26l12-4 9-7 7-6 5 1 40 20-4 8-9 10-8 8-14 9-14 6-15 4-5 1-14 1h-19l-13-2-13-4-16-8-10-7-10-9-9-10-8-13-6-15-3-16v-20l3-16 5-13 6-11 8-10 14-14 15-10 17-7 14-3z"/>
<path transform="translate(1468,272)" d="m0 0h11l18 3 13 4 17 9 10 9 7 10 5 12 2 10v127h-61l-1-1-1-109-4-10-5-7-10-6-9-2-11 1-9 4-9 7-6 9-3 9-1 105h-61v-178h61l1 14 1 2 13-10 12-7 13-4z"/>
<path transform="translate(989,157)" d="m0 0h60l1 1v297l-1 1h-60l-1-1v-297z"/>
<path transform="translate(410,198)" d="m0 0 57 6 61 7 9 3 5 6 2 4v12l-18 160-2 10-4 6-10 5-72 27-35 13h-8l-8-4-5-8-19-51-17-45-22-58-3-9v-7l4-8 7-5 8-3 2-11 4-6 7-4 14-3 2-10 4-6 6-4 5-1h10l2-7 4-5zm33 28-72 27-39 15-5 6-1 6 7 20 26 69 17 45 12 31 4 5 4 2 9-1 59-22 47-18 6-4 3-6-1-8-16-42-15-40-20-53-10-26-7-6z"/>
<path transform="translate(854,278)" d="m0 0h61l1 2v175l-1 1h-61z"/>
<path transform="translate(1654,381)" d="m0 0h8l12 3 10 6 9 10 4 9 1 4v16l-4 11-4 6-8 8-10 5-8 2h-12l-10-3-11-7-8-10-4-11v-17l4-11 6-8 8-7 8-4z"/>
<path transform="translate(883,167)" d="m0 0 11 1 10 4 10 9 6 10 2 8v10l-4 13-9 10-9 6-5 2-13 1-9-2-9-5-7-6-6-10-2-8v-12l3-10 6-8 9-8 10-4z"/>
<path transform="translate(482,216)" d="m0 0h24l6 5 2 9 4 113v19l-2-4-20-94-9-40z" fill="#FEFEFE"/>
<path transform="translate(467,219)" d="m0 0h8l6 4 3 6 20 94 6 28-1 4-22-59-17-45-8-21-5-6-2-2z" fill="#FEFEFE"/>
<path transform="translate(515,216)" d="m0 0h10l8 2 5 6 1 2-1 15-13 115-2 2-5-133z" fill="#FEFEFE"/>
<path transform="translate(1204,312)" d="m0 0h8l11 3 9 6 6 8 3 8v4h-67l1-9 6-10 8-6 8-3z" fill="#FEFEFE"/>
<path transform="translate(413,313)" d="m0 0h9l5 4 1 3v8l2-1h9l5 4 1 2v9l-4 5-5 2-9-2-1-1-5 8-3 2h-9l-5-4-1-2v-9l4-5 4-1-5-9 1-7 4-5z" fill="#FEFEFE"/>
<path transform="translate(414,307)" d="m0 0 10 1 7 6 2 4v3l8 1 5 3 4 6 1 3v7l-4 8-8 5h-7l3 8h8l1 4-15 6h-5l1-5 5-1-4-9-6 4-9 1-7-3-5-6-2-6 1-8 4-6-1-5v-9l4-7 6-4zm-1 6-5 4-2 4 1 8 4 6-5 2-3 4v9l4 5 2 1h9l5-4 3-6 7 3 6-1 5-4 1-2v-9l-4-5-2-1h-9l-2 1v-8l-3-5-3-2z"/>
<path transform="translate(348,268)" d="m0 0 8 1 5 6 6 3 3 3 1 8-3 5-4 3h-3v2h5l1 4-8 4h-5l-1-4 3-1-1-2-2 1h-9l-5-5-1-8 2-3v-9l4-6z"/>
<path transform="translate(489,370)" d="m0 0 4 1-1 4-2 3 9-2 6 3 3 5v6l-2 3v9l-4 6-2 1h-9l-5-5-1-2-7-3-3-7 2-7 5-4h3v-3l-4 1-2-4z"/>
<path transform="translate(1225,519)" d="m0 0 10 2 5 5 3 6v5l-4 1h-25l4 10 4 3 9 1 8-4 3-1-1 4-5 4-3 1h-10l-8-5-4-7v-12l3-6 5-5z"/>
<path transform="translate(1028,523)" d="m0 0h6l6 4 3 5v12l-4 6-6 3-8-1-5-4-3-8 1-9 5-6z" fill="#FEFEFE"/>
<path transform="translate(445,217)" d="m0 0 4 1-26 6-47 10h-3l2-9 6-5 10-1z" fill="#FEFEFE"/>
<path transform="translate(1118,519)" d="m0 0 7 1 5 5 4-2 5-3 6-1 7 3 3 4 1 3v26h-4l-1-26-1-4-10-1-5 3-2 2-1 7-1 19h-3l-1-24-3-6-2-1-9 1-4 4-1 7-1 19h-3v-34h3v4l8-5z"/>
<path transform="translate(941,506)" d="m0 0h7l9 3 2 1-1 3-8-2h-11l-8 4-5 7-1 3v13l5 8 5 4 6 2h7l8-3v-14h-12l-1-4h17v20l-6 4-3 1h-12l-8-3-6-5-5-10v-13l4-9 8-7z"/>
<path transform="translate(1028,519)" d="m0 0 9 2 5 4 1-5h4v35h-4l-1-4-5 4-3 1h-8l-6-3-4-5-2-5v-10l3-7 5-5zm0 4-6 3-4 5-1 9 3 8 5 4 8 1 7-4 3-5v-12l-4-6-5-3z"/>
<path transform="translate(407,232)" d="m0 0h5l-3 2-56 21-7 2 1-7 4-5 9-3z" fill="#FEFEFE"/>
<path transform="translate(408,204)" d="m0 0h10l53 6v1l-9 1-54 2h-8l1-5 5-4z" fill="#FEFEFE"/>
<path transform="translate(1307,519)" d="m0 0 9 2 4 4v2l-4-1-5-2h-6l-4 2v6l5 3 12 4 3 5-1 7-4 4-3 1h-9l-6-3-3-3v-3l4 1 4 3 9 1 4-2 1-5-3-3-13-5-4-4-1-5 3-5 4-3z"/>
<path transform="translate(495,382)" d="m0 0h5l3 5-2 4-3 2 2 3v6l-2 2h-5l-3-4-1-4h-6l-2-2 1-7 6-1 4 2 2-5z" fill="#FEFEFE"/>
<path transform="translate(348,274)" d="m0 0h6l2 3-1 5h8l2 2-1 7-4 1-5-2-4 6h-5l-2-2v-6l5-5-3-1v-6z" fill="#FEFEFE"/>
<path transform="translate(1224,523)" d="m0 0 9 1 5 5 1 5h-24l1-5 5-5z" fill="#FEFEFE"/>
</svg>
