<?xml version="1.0" encoding="UTF-8"?>
<svg version="1.1" viewBox="0 0 2048 803" width="1121" height="440" xmlns="http://www.w3.org/2000/svg">
<path transform="translate(0)" d="m0 0h2048v803h-2048z" fill="#F8F3E7"/>
<path transform="translate(365,232)" d="m0 0h10l122 14 10 4 6 8 1 4-1 17-15 133-5 43-3 8-7 6-42 16-80 30-10 1-8-4-6-7-46-122-19-50-3-9v-8l3-7 7-6 11-5 2-12 5-7 9-4 14-3 1-9 5-8 5-4 8-2 10-1 3-7 4-5 5-3z" fill="#F8F3E7"/>
<path transform="translate(583,199)" d="m0 0h201l12 1v62l-1 1-73 1v244l-1 6-71 1-1-1v-250l-74-1-1-2v-52l1-9z"/>
<path transform="translate(1233,313)" d="m0 0h19l16 2 20 6 16 8 13 10 7 7 8 11 8 16 5 19 2 18v13l-1 3-141 1 1 11 4 10 6 7 10 6 6 3 5 1h24l13-4 9-6 10-9 6 1 17 8 19 10 7 4-1 4-7 10-14 14-14 9-16 7-19 5-5 1-14 1h-22l-13-2-16-5-16-8-13-9-17-17-9-14-7-15-4-16-1-9v-17l3-17 4-12 8-16 8-10 9-10 13-11 16-9 12-5 17-4z"/>
<path transform="translate(1529,313)" d="m0 0h14l15 2 17 5 16 8 8 6 5 5 6 7 8 16 3 12v140l-1 1h-44l-23-1-1-121-4-10-6-8-9-6-6-2h-17l-12 5-11 10-6 10-1 4-1 118-20 1h-47l-1-1v-195h67l1 1 1 18 12-10 13-8 13-5z"/>
<path transform="translate(1e3 187)" d="m0 0h67l1 23v290l-1 14-38 1h-29l-1-1v-207z"/>
<path transform="translate(365,232)" d="m0 0h10l122 14 10 4 6 8 1 4-1 17-15 133-5 43-3 8-7 6-42 16-80 30-10 1-8-4-6-7-46-122-19-50-3-9v-8l3-7 7-6 11-5 2-12 5-7 9-4 14-3 1-9 5-8 5-4 8-2 10-1 3-7 4-5 5-3zm38 30-30 11-90 34-6 4-3 7 1 8 17 45 37 98 13 34 5 6 9 2 18-6 34-13 61-23 12-5 6-7 1-5-7-21-14-37-34-90-14-36-5-5-2-1z"/>
<path transform="translate(855,319)" d="m0 0h67l1 4v188l-1 3-67 1z"/>
<path transform="translate(1733,433)" d="m0 0h13l13 4 10 7 7 8 5 10 2 7v15l-3 10-6 10-8 8-14 7-7 1h-13l-10-3-10-6-8-8-5-9-3-10v-15l3-10 6-10 8-8 14-7z"/>
<path transform="translate(884,198)" d="m0 0h11l10 3 10 6 7 7 6 12 2 13-2 11-5 10-9 10-14 7-5 1h-11l-9-2-10-6-5-4-7-10-4-13v-9l3-11 5-9 9-9 12-6z"/>
<path transform="translate(462,250)" d="m0 0h7l6 3 5 6 1 8 5 138v9l-2-2-22-103-10-46-4-8-3-4z" fill="#F8F3E7"/>
<path transform="translate(431,254)" d="m0 0h7l6 4 3 5 6 26 21 98 3 13v5l-2-2-15-40-20-53-16-42-4-6-4-3v-2z" fill="#F8F3E7"/>
<path transform="translate(481,250)" d="m0 0 18 2 6 4 3 5v13l-15 132-2 4-2-45-3-84-1-20-3-8z" fill="#F8F3E7"/>
<path transform="translate(1234,357)" d="m0 0h18l12 4 10 9 6 12 1 6h-75l2-11 6-9 7-6 9-4z" fill="#F8F3E7"/>
<path transform="translate(371,357)" d="m0 0h7l5 3 4 6 1 7 8-1 7 4 3 7-1 7-4 5-4 2h-8l-6-3-1 5-4 5-9 2-7-3-4-7 1-8 4-5 4-3-4-5-1-9 4-6z" fill="#F8F3E7"/>
<path transform="translate(369,352)" d="m0 0h11l7 4 4 5 1 6 9 1 8 7 2 5v9l-4 8-5 4-10 2v3l2 6 8-1 2 3-3 3-15 6-4-1v-4l6-3-2-6v-4l-8 5-3 1h-9l-6-3-6-7-1-3v-9l4-8 1-4-1-3v-10l5-8zm2 5-6 4-3 5 1 9 4 5-7 6-2 5 1 8 4 5 9 2 7-3 4-6v-3l6 3h8l6-4 3-6-1-7-3-5-6-3-8 1-2-9-5-6-3-1z"/>
<path transform="translate(297,309)" d="m0 0h9l5 4 2 4 7 3 3 5v7l-4 6-4 2h-3l1 2 5 1v4l-8 4h-5l-1-4 4-4-6 2-8-1-5-4-1-3v-8l2-3v-10l5-6z"/>
<path transform="translate(453,421)" d="m0 0 4 1v4l-2 1 1 2 8-2 6 3 4 5v7l-2 4v9l-4 6-3 2h-9l-5-4-1-4-7-2-4-5v-9l5-6 6-1-1-2h-5l-1-4 4-3z"/>
<path transform="translate(1044,588)" d="m0 0h9l5 3 4 5 1 3v10l-4 7-6 4h-9l-6-4-4-8v-8l4-8z" fill="#F8F3E7"/>
<path transform="translate(1262,584)" d="m0 0 9 1 6 4 4 6 1 8-1 1h-31l4 10 5 4 2 1h10l7-4 3-1-1 4-7 5-10 1-8-3-6-7-2-5v-10l4-8 7-6z"/>
<path transform="translate(407,252)" d="m0 0 3 1-6 2-75 16h-3l1-8 6-7 3-1 45-2z" fill="#F8F3E7"/>
<path transform="translate(1130,584)" d="m0 0h3v7l9-6 2-1 9 1 5 5v2l8-6 5-2 9 1 5 5 2 6v27h-4l-1-28-3-5-2-1h-9l-5 3-2 4-1 27-4 1-1-29-3-5-1-1h-9l-6 4-2 4-1 27h-3z"/>
<path transform="translate(370,267)" d="m0 0 3 1-74 28h-3l1-8 5-5 7-3z" fill="#F8F3E7"/>
<path transform="translate(952,571)" d="m0 0 10 1 7 3 1 3-7-1-3-1h-11l-9 4-6 7-2 6v9l3 8 8 7 5 2h13l6-3 1-15h-13l-2-1v-3h18v22l-5 3-8 2h-7l-10-3-8-6-5-10-1-10 3-10 7-8 7-4z"/>
<path transform="translate(363,238)" d="m0 0h15l53 6 6 1v1l-16 1-66 2 1-5z" fill="#F8F3E7"/>
<path transform="translate(586,263)" d="m0 0h63l1 2-1 9-1 236h-1l-1-239-2-4-60-1-6-1v-1z" fill="#FFFEFA"/>
<path transform="translate(722,263)" d="m0 0h51l17 1v1l-14 1-47 1-3 2-1 9-1 218h-1l-1-204-1-15v-13z" fill="#FEFDF9"/>
<path transform="translate(1e3 270)" d="m0 0h1l1 192v37l-1 9h-2v-209z" fill="#FEFDF8"/>
<path transform="translate(1045,584)" d="m0 0 9 1 6 4 2 2 2-7 2 1v39l-3-1-1-6-8 6-9 1-8-4-4-5-2-5v-12l4-8 5-4zm-1 4-6 4-4 8v8l4 8 6 4h9l6-4 4-7v-10l-3-6-4-4-3-1z"/>
<path transform="translate(1234,357)" d="m0 0h18l12 4 10 9 6 12v5h-7l1-8-7-9-7-6-8-3-11-1-12 3-9 6-3 1-4 8v5l3 4-10 1 2-11 6-9 7-6 9-4z" fill="#FDFBF5"/>
<path transform="translate(299,314)" d="m0 0 6 1 2 2 1 6h7l3 4-1 5-2 2h-6l-4-2-1 5-2 2h-6l-3-4 1-5 4-3-2-4v-6z" fill="#F8F3E7"/>
<path transform="translate(460,433)" d="m0 0h5l4 5-2 5-3 2 2 5v5l-3 3-7-1-1-2v-6h-8l-3-3 1-6 2-2h6l4 2 1-5z" fill="#F8F3E7"/>
<path transform="translate(1510,366)" d="m0 0h17l9 4 8 6 7 11 1 3v13h-1l-4-16-4-5v-2h-2l-5-5-10-5-4-1h-7l-11 3-11 9-8 10-4 12h-1v-11l6-10 8-8 10-6z" fill="#FDFBF5"/>
<path transform="translate(1351,584)" d="m0 0h7l8 4 1 4-4-1-4-2h-9l-4 3v5l3 3 15 5 4 4v8l-5 5-5 2-10-1-6-4-2-2v-3l4 1 6 4h10l4-3-1-7-11-4-8-4-2-3v-7l4-5z"/>
<path transform="translate(1260,588)" d="m0 0h9l5 3 4 5v4h-27l1-5 4-5z" fill="#F8F3E7"/>
<path transform="translate(584,196)" d="m0 0h179l10 1v1l-196 1 4-2z" fill="#FFFEFA"/>
<path transform="translate(1143,461)" d="m0 0h2l6 11 8 10 14 14 15 10 15 7 6 2v2l-7-1-15-6-11-7-9-7-7-8-3-3v-2l-3-1-7-11-4-7z" fill="#FCFAF3"/>
<path transform="translate(586,263)" d="m0 0h63l1 2-1 9h-2l-3-7-60-1-6-1v-1z" fill="#FEFDF9"/>
<path transform="translate(1606,514)" d="m0 0h9l3 2-5 2h-54l-6-2v-1z" fill="#FEFDF9"/>
<path transform="translate(1343,469)" d="m0 0h1v5l-8 11-11 12-12 9-10 4-5 1v-2l15-8 10-8 12-12 6-9h2z" fill="#FDFBF5"/>
<path transform="translate(657,515)" d="m0 0h62l-2 2-4 1h-53l-8-1v-1z" fill="#FFFEFA"/>
<path transform="translate(1010,183)" d="m0 0h53l7 2v1h-67l4-2z" fill="#FFFEFA"/>
<path transform="translate(859,515)" d="m0 0h60l-2 2-3 1h-53l-4-2z" fill="#FFFEFA"/>
<path transform="translate(1429,514)" d="m0 0 46 1-1 2-4 1h-49l-7-1 2-2z" fill="#FEFDF9"/>
<path transform="translate(1010,515)" d="m0 0h56l-1 2-4 1h-49l-7-1v-1z" fill="#FFFEFA"/>
<path transform="translate(1268,314)" d="m0 0 8 1 9 2 11 5 8 5 9 5 10 9 2 5-4-2-10-9-11-7-12-6-20-6z" fill="#FCFAF3"/>
<path transform="translate(1071,192)" d="m0 0 2 2 1 6-1 117h-1l-1-100z" fill="#FFFEFA"/>
<path transform="translate(1536,310)" d="m0 0 23 3 21 6 13 7 3 4-5-1-16-8-17-5-15-2v-2h-12v-1z" fill="#FCFAF3"/>
<path transform="translate(1204,427)" d="m0 0h6l-1 10 6 12 11 10 2 2-6-1-9-7-6-9-2-6z" fill="#FDFBF5"/>
<path transform="translate(1783,485)" d="m0 0h1v7l-3 7-4 6-5 5-8 7-12 3v-2l14-7 7-7 6-10 2-6h2z" fill="#FDFAF4"/>
<path transform="translate(928,246)" d="m0 0h2v8l-6 10-11 10-10 4h-3v-2l14-7 9-10z" fill="#FCFAF3"/>
<path transform="translate(399,242)" d="m0 0h15l23 3v1h-38z" fill="#FCF9F2"/>
<path transform="translate(1294,443)" d="m0 0 9 2 13 8 5 3-4 1-20-10v-2l-4-1z" fill="#FDFBF5"/>
<path transform="translate(1304,328)" d="m0 0 4 1 10 7 7 8v2l-4-2-10-9-7-5z" fill="#FDFAF4"/>
<path transform="translate(1328,350)" d="m0 0 3 1 6 11 5 11v3h-2l-7-16-5-7z" fill="#FBF9F1"/>
<path transform="translate(1614,351)" d="m0 0 3 3 5 12v4h-3l-4-13z" fill="#FCFAF3"/>
<path transform="translate(857,265)" d="m0 0 6 2 8 6 4 2v2l-6-2-9-6z" fill="#FCF9F2"/>
<path transform="translate(1289,447)" d="m0 0 1 3-9 8-5 1 2-1 2-4z" fill="#FCFAF4"/>
<path transform="translate(1707,508)" d="m0 0 8 4 9 5v2l-9-3-8-6z" fill="#FCFAF3"/>
<path transform="translate(1502,319)" d="m0 0h3v2l-10 6-3 2-3-1 5-4z" fill="#FCF9F3"/>
<path transform="translate(385,254)" d="m0 0h15l-1 2-4 1h-9z" fill="#FDFBF5"/>
<path transform="translate(1223,384)" d="m0 0h7l5 1-3 2h-14l1-2z" fill="#FFFEFA"/>
<path transform="translate(1268,314)" d="m0 0 8 1 6 2v2l-11-2-3-1z" fill="#FBF8F1"/>
</svg>
